<?xml version="1.0" encoding="UTF-8"?>
<svg style="isolation:isolate" version="1.1" viewBox="0 0 353.32 291.84" xmlns="http://www.w3.org/2000/svg">
 <defs>
  <clipPath id="_clipPath_UtqZLITYQTxqYYyNBuvbwVm8EbgkJ5Yg">
   <rect width="992.12" height="708.66"/>
  </clipPath>
 </defs>
 <g transform="translate(-317.82 -148.26)" clip-path="url(#_clipPath_UtqZLITYQTxqYYyNBuvbwVm8EbgkJ5Yg)">
  <clipPath id="_clipPath_KRDPPEh8G3T17NSWFS7cKdBToLOXgtVc">
   <path d="m0 0h992.12v708.66h-992.12z" fill="#fff"/>
  </clipPath>
  <g clip-path="url(#_clipPath_KRDPPEh8G3T17NSWFS7cKdBToLOXgtVc)">
   <path d="m593.83 288.7c0.031-1.009 0.051-2.021 0.051-3.038 0-27.777-11.542-52.871-30.114-70.819h-138.6c-18.572 17.948-30.114 43.042-30.114 70.819 0 1.017 0.021 2.029 0.052 3.038z" fill="#7e7f7f"/>
   <path d="m395.81 297.84c6.037 48.815 47.905 86.615 98.661 86.615 50.757 0 92.624-37.8 98.661-86.615z" fill="#7e7f7f"/>
   <path d="m494.48 148.26c32.079 0 61.6 10.893 85.038 29.162l-24.369 29.977c-16.788-12.866-37.827-20.524-60.669-20.524-22.841 0-43.88 7.658-60.668 20.524l-24.369-29.977c23.439-18.269 52.959-29.162 85.037-29.162z" fill="#f48735" fill-rule="evenodd"/>
   <path d="m476.25 338-18.237-35.201 18.237-35.203h36.475l18.239 35.203-18.239 35.201z" fill="#f48735"/>
   <path d="m468.54 323.12h51.891l6.739-13.007h-65.369z" fill="#292929"/>
   <path d="m461.8 295.48h65.369l-6.74-13.007h-51.89z" fill="#292929"/>
   <path d="m418.98 267.59v27.436h44.613l-33.67 15.242 18.327 21.34 26.535-36.582 2.734-3.085z" fill="#373535"/>
   <path d="m569.98 267.59-58.539 24.351 2.734 3.085 26.535 36.582 18.329-21.34-33.672-15.242h44.613z" fill="#373535"/>
   <path d="m480.48 270.07c-0.243-1.626-9.119-30.621-9.119-30.621h1.945l8.389 30.621" fill="#292929"/>
   <path d="m508.49 270.07c0.242-1.626 9.119-30.621 9.119-30.621h-1.946l-8.389 30.621" fill="#292929"/>
  </g>
  <clipPath id="_clipPath_0xbcwkXVdrIDhBWkP3gsYEeVLaM0L2vI">
   <path d="m0 0h992.12v708.66h-992.12z" fill="#fff"/>
  </clipPath>
  <g clip-path="url(#_clipPath_0xbcwkXVdrIDhBWkP3gsYEeVLaM0L2vI)" fill="#7e7f7f">
   <path d="m632.54 288.7h38.606v-46.482c0-15.119-12.257-27.375-27.376-27.375h-30.899c12.505 20.675 19.708 44.887 19.708 70.779 0 1.029-0.016 2.054-0.039 3.078z"/>
   <path d="m632.03 297.84c-6.211 70.185-65.411 125.23-137.54 125.23s-131.33-55.044-137.54-125.23h-39.131v114.88c0 15.119 12.256 27.376 27.376 27.376h298.57c15.119 0 27.376-12.257 27.376-27.376v-114.88z"/>
   <path d="m356.44 288.7c-0.023-1.024-0.039-2.049-0.039-3.078 0-25.892 7.203-50.104 19.709-70.779h-30.915c-15.12 0-27.376 12.256-27.376 27.375v46.482z"/>
  </g>
 </g>
</svg>
